<svg xmlns="http://www.w3.org/2000/svg" viewBox="0 0 211 208.71"><defs><style>.cls-1{fill:#69c480;}.cls-2{fill:#f4bf4a;}.cls-3{fill:#a25fce;}.cls-4{opacity:0.25;}.cls-5{fill:#e8ebef;}</style></defs><title>Ресурс 1</title><g id="Слой_2" data-name="Слой 2"><g id="Слой_1-2" data-name="Слой 1"><path class="cls-1" d="M42,121.59l.31-.26a150.52,150.52,0,0,0,20.33-20.9q-3.78-2.22-7.53-4.62a301,301,0,0,0-27,30.32c-.71.9-1.36,1.77-2,2.57A15.27,15.27,0,0,0,24,134.58l.33-.2A152.7,152.7,0,0,0,42,121.59Z"/><path class="cls-2" d="M126.64,118.11q0,4.42-.24,8.93a306.74,306.74,0,0,0,40,8.4l2.21.3c.32,0,.64,0,1,0a15.32,15.32,0,0,0,5.91-1.18,152.47,152.47,0,0,0-20.42-9.2A149.86,149.86,0,0,0,126.64,118.11Z"/><path class="cls-3" d="M110.1,53.81c2.53-1.43,5.11-2.83,7.74-4.18A305.86,305.86,0,0,0,105,10.43l-.78-1.88A15.22,15.22,0,0,0,100,3.32a152.25,152.25,0,0,0,2.18,21.89A149.59,149.59,0,0,0,110.1,53.81Z"/><path class="cls-4" d="M42,121.59l.31-.26a150.52,150.52,0,0,0,20.33-20.9q-3.78-2.22-7.53-4.62a301,301,0,0,0-27,30.32c-.71.9-1.36,1.77-2,2.57A15.27,15.27,0,0,0,24,134.58l.33-.2A152.7,152.7,0,0,0,42,121.59Z"/><path class="cls-4" d="M126.64,118.11q0,4.42-.24,8.93a306.74,306.74,0,0,0,40,8.4l2.21.3c.32,0,.64,0,1,0a15.32,15.32,0,0,0,5.91-1.18,152.47,152.47,0,0,0-20.42-9.2A149.86,149.86,0,0,0,126.64,118.11Z"/><path class="cls-4" d="M110.1,53.81c2.53-1.43,5.11-2.83,7.74-4.18A305.86,305.86,0,0,0,105,10.43l-.78-1.88A15.22,15.22,0,0,0,100,3.32a152.25,152.25,0,0,0,2.18,21.89A149.59,149.59,0,0,0,110.1,53.81Z"/><path class="cls-2" d="M185.17,29.29a26.29,26.29,0,0,0-3,.17,188.73,188.73,0,0,0-64.37,20.17c-2.63,1.35-5.21,2.75-7.74,4.18a159.32,159.32,0,0,0,14.05,27.71,182.36,182.36,0,0,0,30.25,36,.6.6,0,0,1,.08.08,176.12,176.12,0,0,0,21,16.69l.25.17a15.37,15.37,0,0,0,7.74-7.64c.16-.4.33-.82.51-1.25,5.73-14.07,16-38.81,24.64-59.65l.76-1.81a25.85,25.85,0,0,0-24.22-34.83Z"/><path class="cls-1" d="M95.33,116.46A181.19,181.19,0,0,0,49,124.86a173,173,0,0,0-25,10,17.14,17.14,0,0,0-.1,1.76,15.33,15.33,0,0,0,2.69,8.68h0l.89,1.16c9.33,12.26,26,34,40,52l.25.32A25.83,25.83,0,0,0,111.34,194v0c.27-.62.54-1.25.8-1.87v0a190,190,0,0,0,14.24-65q.21-4.5.24-8.93A157.45,157.45,0,0,0,95.33,116.46Z"/><path class="cls-3" d="M90.44,0A14.52,14.52,0,0,0,89,.07l-.82.1C73,2,45.89,5.64,23.26,8.74l-2,.27A25.83,25.83,0,0,0,4.17,48.51C4.78,49.36,5.41,50.2,6,51l.32.42v0A189.1,189.1,0,0,0,55.11,95.81q3.75,2.4,7.53,4.62a158.34,158.34,0,0,0,14-20.71h0q.66-1.16,1.29-2.31h0c.57-1,1.13-2.09,1.67-3.13A183.69,183.69,0,0,0,95.75,29.7a174.77,174.77,0,0,0,4-26.59A15.27,15.27,0,0,0,90.44,0Z"/><path class="cls-5" d="M175.49,134.3a176.12,176.12,0,0,1-21-16.69.6.6,0,0,0-.08-.08,182.36,182.36,0,0,1-30.25-36A159.32,159.32,0,0,1,110.1,53.81a149.59,149.59,0,0,1-7.95-28.6A152.25,152.25,0,0,1,100,3.32l-.27-.21a174.77,174.77,0,0,1-4,26.59A183.69,183.69,0,0,1,79.63,74.27c-.54,1-1.1,2.09-1.67,3.13h0q-.63,1.16-1.29,2.31h0a158.34,158.34,0,0,1-14,20.71,150.52,150.52,0,0,1-20.33,20.9l-.31.26a152.7,152.7,0,0,1-17.64,12.79l-.33.2a3.11,3.11,0,0,1,0,.32,173,173,0,0,1,25-10,181.19,181.19,0,0,1,46.34-8.4,157.45,157.45,0,0,1,31.31,1.65,149.86,149.86,0,0,1,28.4,7.28,152.47,152.47,0,0,1,20.42,9.2l.28-.12Z"/></g></g></svg>